<svg version="1.1" viewBox="0.0 0.0 352.12335958005247 214.6509186351706" fill="none" stroke="none" stroke-linecap="square" stroke-miterlimit="10" xmlns:xlink="http://www.w3.org/1999/xlink" xmlns="http://www.w3.org/2000/svg"><clipPath id="p.0"><path d="m0 0l352.12335 0l0 214.65092l-352.12335 0l0 -214.65092z" clip-rule="nonzero"/></clipPath><g clip-path="url(#p.0)"><path fill="#000000" fill-opacity="0.0" d="m0 0l352.12335 0l0 214.65092l-352.12335 0z" fill-rule="evenodd"/><path fill="#cc0000" fill-opacity="0.8" d="m86.859344 25.736254c-8.330688 0 -15.901482 1.4072113 -22.712387 4.221634c-6.8109016 2.8144207 -11.989441 6.9422398 -15.53561 12.383459c-3.546173 5.422455 -5.3192596 11.25769 -5.3192596 17.505707c0 5.685135 1.4447365 10.826149 4.3342094 15.423035c2.9082375 4.5781326 7.3174973 8.415123 13.227787 11.510986c4.5593605 2.4204025 12.524181 5.0002975 23.894444 7.739662c11.37027 2.7206116 18.715912 4.7282333 22.036926 6.0228653c5.178543 1.9700928 8.893578 4.409256 11.145119 7.3174973c2.2515335 2.889473 3.377304 6.276161 3.377304 10.160065c0 3.8276138 -1.1726761 7.364403 -3.5180283 10.610367c-2.3265915 3.2272034 -5.882141 5.769577 -10.6666565 7.6270905c-4.784523 1.8575134 -10.300789 2.7862854 -16.548805 2.7862854c-7.0360565 0 -13.368507 -1.2195892 -18.997353 -3.6587524c-5.628845 -2.4579315 -9.784809 -5.666382 -12.467892 -9.625328c-2.664318 -3.9777222 -4.3623543 -9.062439 -5.094105 -15.254166l-15.4511795 1.3509216c0.22515488 8.274399 2.4860725 15.695091 6.782757 22.262077c4.3154488 6.548218 10.25388 11.454697 17.815296 14.719437c7.5801773 3.2647247 16.97097 4.8970947 28.17237 4.8970947c8.83728 0 16.78334 -1.613617 23.838158 -4.840805c7.073578 -3.2459717 12.496033 -7.777191 16.267365 -13.593674c3.7713165 -5.8352356 5.6569824 -12.045723 5.6569824 -18.63147c0 -6.6420364 -1.7167969 -12.5054245 -5.1503906 -17.590141c-3.4335938 -5.103485 -8.752853 -9.315735 -15.957779 -12.636757c-4.9533844 -2.2515335 -14.090874 -4.8783264 -27.412476 -7.8803787c-13.302834 -3.020813 -21.530327 -5.9665756 -24.682484 -8.837288c-3.2084389 -2.8707123 -4.81266 -6.529461 -4.81266 -10.97625c0 -5.1222496 2.2609177 -9.49398 6.782757 -13.115208c4.5406036 -3.639988 11.764282 -5.45998 21.671051 -5.45998c9.512749 0 16.698906 1.9982414 21.55848 5.9947205c4.878334 3.996479 7.739662 9.906769 8.583984 17.730862l15.704475 -1.1820564c-0.2814331 -7.2612114 -2.3078156 -13.762527 -6.0791473 -19.503948c-3.7713242 -5.7414207 -9.165634 -10.085014 -16.18293 -13.030777c-6.9985275 -2.9645252 -15.085304 -4.446787 -24.260323 -4.446787z" fill-rule="evenodd"/><path fill="#cc0000" fill-opacity="0.8" d="m187.684 43.069168c9.175018 0 15.882721 1.8856621 20.123123 5.65699c4.2591553 3.7713242 6.388733 8.583988 6.388733 14.437988c0 3.9964752 -1.0976257 7.702133 -3.292862 11.116966c-2.1952515 3.3960724 -5.403702 5.8727646 -9.625336 7.4300766c-4.221634 1.5385513 -10.075623 2.3078232 -17.561996 2.3078232l-35.20842 0l0 -40.949844zm-55.5567 -13.678093l0 123.7783l16.379944 0l0 -54.965668l18.997345 0c4.221634 0 7.261215 0.19700623 9.118729 0.5910263c2.5329895 0.6191788 5.019058 1.7167969 7.4582214 3.2928772c2.4579315 1.5760727 5.234833 4.3342133 8.330688 8.274399c3.095871 3.9401932 7.0360565 9.625328 11.820587 17.055405l16.379929 25.75196l20.601578 0l-21.530334 -33.688637c-4.2779236 -6.585747 -8.809143 -12.073868 -13.593658 -16.46437c-2.2515411 -2.0263824 -5.5444183 -4.0809097 -9.878616 -6.163582c11.876862 -1.63237 20.657852 -5.459984 26.342987 -11.4828415c5.685135 -6.0228653 8.527695 -13.424797 8.527695 -22.205795c0 -6.8109055 -1.7167969 -13.030777 -5.1503906 -18.659622c-3.4335938 -5.628845 -8.021103 -9.550274 -13.762527 -11.764286c-5.7414246 -2.2327766 -14.128403 -3.349163 -25.160934 -3.349163z" fill-rule="evenodd"/><path fill="#cc0000" fill-opacity="0.8" d="m273.1238 43.99793c7.430084 0 12.5242 0.36587524 15.282318 1.0976257c4.2779236 1.1820564 7.720886 3.6212234 10.328918 7.3174973c2.6268005 3.6775131 3.940216 8.105537 3.940216 13.284077c0 7.148628 -2.2234192 12.693039 -6.6701965 16.633232c-4.4467773 3.9401932 -11.961304 5.910286 -22.543518 5.910286l-31.999985 0l0 -44.242718zm-48.04219 -14.6068535l0 123.7783l16.379944 0l0 -50.32187l31.746689 0c17.505707 0 29.607727 -3.6399841 36.30606 -10.91996c6.698303 -7.2987366 10.047485 -16.211075 10.047485 -26.737015c0 -6.135441 -1.2571106 -11.764286 -3.7713318 -16.886536c-2.495453 -5.122246 -5.7977295 -9.099964 -9.906769 -11.933151c-4.10907 -2.8519478 -9.2031555 -4.7845173 -15.282318 -5.7977085c-4.334198 -0.78803825 -10.610382 -1.1820583 -18.828491 -1.1820583z" fill-rule="evenodd"/><path fill="#000000" fill-opacity="0.0" d="m22.619848 157.3517l701.73224 0l0 81.85828l-701.73224 0z" fill-rule="evenodd"/><path fill="#720000" d="m44.9636 183.26921q-0.59375 1.796875 -2.078125 2.796875q-1.46875 0.984375 -3.546875 0.984375q-1.921875 0 -3.375 -0.890625q-1.4375 -0.890625 -2.234375 -2.53125q-0.78125 -1.640625 -0.78125 -3.828125q0 -2.203125 0.78125 -3.84375q0.796875 -1.640625 2.234375 -2.53125q1.453125 -0.890625 3.359375 -0.890625q4.21875 0 5.453125 3.484375l-1.046875 0.484375q-0.484375 -1.484375 -1.5625 -2.234375q-1.078125 -0.75 -2.78125 -0.75q-1.578125 0 -2.78125 0.765625q-1.203125 0.75 -1.875 2.171875q-0.65625 1.421875 -0.65625 3.34375q0 1.90625 0.640625 3.328125q0.65625 1.421875 1.84375 2.1875q1.1875 0.75 2.78125 0.75q1.703125 0 2.890625 -0.828125q1.203125 -0.84375 1.671875 -2.375l1.0625 0.40625zm8.73732 -10.734375q1.984375 0 3.4375 0.890625q1.46875 0.890625 2.25 2.53125q0.796875 1.625 0.796875 3.84375q0 2.21875 -0.796875 3.84375q-0.78125 1.625 -2.25 2.515625q-1.453125 0.890625 -3.4375 0.890625q-1.984375 0 -3.453125 -0.890625q-1.453125 -0.890625 -2.25 -2.515625q-0.78125 -1.625 -0.78125 -3.84375q0 -2.21875 0.78125 -3.84375q0.796875 -1.640625 2.25 -2.53125q1.46875 -0.890625 3.453125 -0.890625zm0 0.984375q-1.65625 0 -2.859375 0.765625q-1.203125 0.75 -1.859375 2.171875q-0.640625 1.421875 -0.640625 3.34375q0 1.90625 0.640625 3.328125q0.65625 1.421875 1.859375 2.1875q1.203125 0.75 2.859375 0.75q1.640625 0 2.84375 -0.75q1.21875 -0.765625 1.875 -2.1875q0.65625 -1.421875 0.65625 -3.328125q0 -1.921875 -0.65625 -3.34375q-0.65625 -1.421875 -1.875 -2.171875q-1.203125 -0.765625 -2.84375 -0.765625zm20.830994 13.3125l-1.328125 0l-7.453125 -11.046875l-1.046875 -1.875l-0.03125 0l0.0625 1.765625l0 11.15625l-1.015625 0l0 -14.078125l1.34375 0l7.4375 11.03125l1.078125 1.890625l-0.046875 -1.765625l0 -11.15625l1.0 0l0 14.078125zm8.780914 -14.296875q3.96875 0 5.3125 3.125l-0.90625 0.75q-0.546875 -1.515625 -1.609375 -2.203125q-1.046875 -0.6875 -2.765625 -0.6875q-1.234375 0 -2.15625 0.390625q-0.921875 0.375 -1.40625 1.046875q-0.46875 0.65625 -0.46875 1.484375q0 0.8125 0.40625 1.34375q0.40625 0.53125 1.375 0.90625q0.96875 0.375 2.671875 0.671875q2.75 0.46875 3.90625 1.375q1.15625 0.890625 1.15625 2.46875q0 1.125 -0.671875 2.0q-0.65625 0.875 -1.859375 1.359375q-1.203125 0.484375 -2.765625 0.484375q-2.21875 0 -3.75 -0.890625q-1.515625 -0.890625 -2.078125 -2.484375l0.9375 -0.71875q0.4375 1.5 1.71875 2.3125q1.296875 0.796875 3.1875 0.796875q1.84375 0 3.0 -0.75q1.171875 -0.75 1.171875 -2.046875q0 -1.125 -0.953125 -1.78125q-0.953125 -0.671875 -3.296875 -1.078125q-1.984375 -0.34375 -3.140625 -0.828125q-1.140625 -0.484375 -1.65625 -1.203125q-0.5 -0.734375 -0.5 -1.828125q0 -1.09375 0.625 -2.0q0.640625 -0.921875 1.796875 -1.46875q1.171875 -0.546875 2.71875 -0.546875zm19.545914 9.15625q0 2.609375 -1.40625 3.984375q-1.40625 1.375 -4.015625 1.375q-2.59375 0 -4.015625 -1.375q-1.421875 -1.375 -1.421875 -3.984375l0 -8.9375l1.0625 0l0 8.71875q0 2.265625 1.109375 3.4375q1.109375 1.15625 3.265625 1.15625q2.140625 0 3.25 -1.15625q1.109375 -1.171875 1.109375 -3.4375l0 -8.71875l1.0625 0l0 8.9375zm13.779205 4.15625l0 0.984375l-9.515625 0l0 -14.078125l1.0625 0l0 13.09375l8.453125 0zm12.277855 -12.109375l-5.1406174 0l0 13.09375l-1.0625 0l0 -13.09375l-5.140625 0l0 -0.984375l11.343742 0l0 0.984375zm3.7537994 13.09375l-1.0625 0l0 -14.078125l1.0625 0l0 14.078125zm15.252686 0l-1.328125 0l-7.453125 -11.046875l-1.046875 -1.875l-0.03125 0l0.0625 1.765625l0 11.15625l-1.015625 0l0 -14.078125l1.34375 0l7.4375 11.03125l1.078125 1.890625l-0.046875 -1.765625l0 -11.15625l1.0 0l0 14.078125zm15.640289 -6.890625l0 6.890625l-0.859375 0l-0.046875 -2.453125q-0.578125 1.28125 -1.8125 1.984375q-1.21875 0.6875 -3.03125 0.6875q-1.90625 0 -3.359375 -0.890625q-1.4375 -0.890625 -2.21875 -2.53125q-0.765625 -1.640625 -0.765625 -3.828125q0 -2.203125 0.796875 -3.84375q0.796875 -1.640625 2.25 -2.53125q1.453125 -0.890625 3.359375 -0.890625q2.15625 0 3.515625 0.859375q1.375 0.859375 2.0625 2.609375l-0.984375 0.5q-0.484375 -1.46875 -1.65625 -2.21875q-1.15625 -0.765625 -2.9375 -0.765625q-1.578125 0 -2.765625 0.765625q-1.1875 0.75 -1.859375 2.171875q-0.65625 1.421875 -0.65625 3.34375q0 2.921875 1.390625 4.59375q1.40625 1.671875 3.875 1.671875q1.53125 0 2.59375 -0.609375q1.078125 -0.609375 1.578125 -1.59375q0.515625 -1.0 0.515625 -2.125l0 -0.796875l-4.765625 0l0 -1.0l5.78125 0zm14.788757 -7.40625q3.96875 0 5.3125 3.125l-0.90625 0.75q-0.546875 -1.515625 -1.609375 -2.203125q-1.046875 -0.6875 -2.765625 -0.6875q-1.234375 0 -2.15625 0.390625q-0.921875 0.375 -1.40625 1.046875q-0.46875 0.65625 -0.46875 1.484375q0 0.8125 0.40625 1.34375q0.40625 0.53125 1.375 0.90625q0.96875 0.375 2.671875 0.671875q2.75 0.46875 3.90625 1.375q1.15625 0.890625 1.15625 2.46875q0 1.125 -0.671875 2.0q-0.65625 0.875 -1.859375 1.359375q-1.203125 0.484375 -2.765625 0.484375q-2.21875 0 -3.75 -0.890625q-1.515625 -0.890625 -2.078125 -2.484375l0.9375 -0.71875q0.4375 1.5 1.71875 2.3125q1.296875 0.796875 3.1875 0.796875q1.84375 0 3.0 -0.75q1.171875 -0.75 1.171875 -2.046875q0 -1.125 -0.953125 -1.78125q-0.953125 -0.671875 -3.296875 -1.078125q-1.984375 -0.34375 -3.140625 -0.828125q-1.140625 -0.484375 -1.65625 -1.203125q-0.5 -0.734375 -0.5 -1.828125q0 -1.09375 0.625 -2.0q0.640625 -0.921875 1.796875 -1.46875q1.171875 -0.546875 2.71875 -0.546875zm18.811539 13.3125l0 0.984375l-9.953125 0l0 -14.078125l9.625 0l0 0.984375l-8.5625 0l0 5.4375l6.765625 0l0 1.0l-6.765625 0l0 5.671875l8.890625 0zm12.412247 0.984375l-4.03125 -6.09375l-0.0625 0l-4.15625 0l0 6.09375l-1.0625 0l0 -14.078125l5.21875 0q2.125 0 3.359375 1.078125q1.25 1.0625 1.25 2.90625q0 1.546875 -0.890625 2.5625q-0.890625 1.0 -2.453125 1.296875l4.09375 6.234375l-1.265625 0zm-8.25 -7.109375l4.140625 0q1.703125 0 2.609375 -0.765625q0.90625 -0.765625 0.90625 -2.21875q0 -1.4375 -0.90625 -2.21875q-0.90625 -0.78125 -2.609375 -0.78125l-4.140625 0l0 5.984375zm17.556305 7.109375l-1.265625 0l-5.4375 -14.078125l1.15625 0l4.15625 10.90625l0.75 2.171875l0.75 -2.171875l4.171875 -10.90625l1.140625 0l-5.421875 14.078125zm9.18927 0l-1.0625 0l0 -14.078125l1.0625 0l0 14.078125zm15.565186 -3.5625q-0.59375 1.796875 -2.078125 2.796875q-1.46875 0.984375 -3.546875 0.984375q-1.921875 0 -3.375 -0.890625q-1.4375 -0.890625 -2.234375 -2.53125q-0.78125 -1.640625 -0.78125 -3.828125q0 -2.203125 0.78125 -3.84375q0.796875 -1.640625 2.234375 -2.53125q1.453125 -0.890625 3.359375 -0.890625q4.21875 0 5.453125 3.484375l-1.046875 0.484375q-0.484375 -1.484375 -1.5625 -2.234375q-1.078125 -0.75 -2.78125 -0.75q-1.578125 0 -2.78125 0.765625q-1.203125 0.75 -1.875 2.171875q-0.65625 1.421875 -0.65625 3.34375q0 1.90625 0.640625 3.328125q0.65625 1.421875 1.84375 2.1875q1.1875 0.75 2.78125 0.75q1.703125 0 2.890625 -0.828125q1.203125 -0.84375 1.671875 -2.375l1.0625 0.40625zm13.096695 2.578125l0 0.984375l-9.953125 0l0 -14.078125l9.625 0l0 0.984375l-8.5625 0l0 5.4375l6.765625 0l0 1.0l-6.765625 0l0 5.671875l8.890625 0zm7.443512 -13.3125q3.96875 0 5.3125 3.125l-0.90625 0.75q-0.546875 -1.515625 -1.609375 -2.203125q-1.046875 -0.6875 -2.765625 -0.6875q-1.234375 0 -2.15625 0.390625q-0.921875 0.375 -1.40625 1.046875q-0.46875 0.65625 -0.46875 1.484375q0 0.8125 0.40625 1.34375q0.40625 0.53125 1.375 0.90625q0.96875 0.375 2.671875 0.671875q2.75 0.46875 3.90625 1.375q1.15625 0.890625 1.15625 2.46875q0 1.125 -0.671875 2.0q-0.65625 0.875 -1.859375 1.359375q-1.203125 0.484375 -2.765625 0.484375q-2.21875 0 -3.75 -0.890625q-1.515625 -0.890625 -2.078125 -2.484375l0.9375 -0.71875q0.4375 1.5 1.71875 2.3125q1.296875 0.796875 3.1875 0.796875q1.84375 0 3.0 -0.75q1.171875 -0.75 1.171875 -2.046875q0 -1.125 -0.953125 -1.78125q-0.953125 -0.671875 -3.296875 -1.078125q-1.984375 -0.34375 -3.140625 -0.828125q-1.140625 -0.484375 -1.65625 -1.203125q-0.5 -0.734375 -0.5 -1.828125q0 -1.09375 0.625 -2.0q0.640625 -0.921875 1.796875 -1.46875q1.171875 -0.546875 2.71875 -0.546875zm9.014648 12.546875q0.546875 0 0.859375 0.4375q0.3125 0.421875 0.3125 1.125q0 0.890625 -0.46875 1.671875q-0.46875 0.796875 -1.375 1.25l-0.59375 -0.53125q0.75 -0.28125 1.21875 -0.953125q0.484375 -0.65625 0.4375 -1.265625l-0.0625 -0.03125q-0.140625 0.21875 -0.484375 0.21875q-0.328125 0 -0.578125 -0.25q-0.25 -0.265625 -0.25 -0.6875q0 -0.40625 0.28125 -0.6875q0.296875 -0.296875 0.703125 -0.296875zm12.2742 1.75l-1.0625 0l0 -14.078125l1.0625 0l0 14.078125zm15.252686 0l-1.328125 0l-7.453125 -11.046875l-1.046875 -1.875l-0.03125 0l0.0625 1.765625l0 11.15625l-1.015625 0l0 -14.078125l1.34375 0l7.4375 11.03125l1.078125 1.890625l-0.046875 -1.765625l0 -11.15625l1.0 0l0 14.078125zm15.562164 -3.5625q-0.59375 1.796875 -2.078125 2.796875q-1.46875 0.984375 -3.546875 0.984375q-1.921875 0 -3.375 -0.890625q-1.4375 -0.890625 -2.234375 -2.53125q-0.78125 -1.640625 -0.78125 -3.828125q0 -2.203125 0.78125 -3.84375q0.796875 -1.640625 2.234375 -2.53125q1.453125 -0.890625 3.359375 -0.890625q4.21875 0 5.453125 3.484375l-1.046875 0.484375q-0.484375 -1.484375 -1.5625 -2.234375q-1.078125 -0.75 -2.78125 -0.75q-1.578125 0 -2.78125 0.765625q-1.203125 0.75 -1.875 2.171875q-0.65625 1.421875 -0.65625 3.34375q0 1.90625 0.640625 3.328125q0.65625 1.421875 1.84375 2.1875q1.1875 0.75 2.78125 0.75q1.703125 0 2.890625 -0.828125q1.203125 -0.84375 1.671875 -2.375l1.0625 0.40625zm3.2685852 1.8125q0.421875 0 0.6875 0.265625q0.28125 0.265625 0.28125 0.6875q0 0.4375 -0.28125 0.703125q-0.265625 0.265625 -0.6875 0.265625q-0.421875 0 -0.6875 -0.265625q-0.265625 -0.265625 -0.265625 -0.703125q0 -0.421875 0.265625 -0.6875q0.265625 -0.265625 0.6875 -0.265625z" fill-rule="nonzero"/></g></svg>